<?xml version="1.0" encoding="UTF-8" standalone="no"?>
<!-- Created with Inkscape (http://www.inkscape.org/) -->

<svg
   width="210mm"
   height="297mm"
   viewBox="0 0 210 297"
   version="1.1"
   id="svg1"
   xml:space="preserve"
   inkscape:version="1.3.2 (091e20e, 2023-11-25, custom)"
   sodipodi:docname="dibujo_tapas.svg"
   xmlns:inkscape="http://www.inkscape.org/namespaces/inkscape"
   xmlns:sodipodi="http://sodipodi.sourceforge.net/DTD/sodipodi-0.dtd"
   xmlns="http://www.w3.org/2000/svg"
   xmlns:svg="http://www.w3.org/2000/svg"><sodipodi:namedview
     id="namedview1"
     pagecolor="#ffffff"
     bordercolor="#000000"
     borderopacity="0.25"
     inkscape:showpageshadow="2"
     inkscape:pageopacity="0.0"
     inkscape:pagecheckerboard="0"
     inkscape:deskcolor="#d1d1d1"
     inkscape:document-units="mm"
     inkscape:zoom="1.4627806"
     inkscape:cx="153.47483"
     inkscape:cy="480.24974"
     inkscape:window-width="1920"
     inkscape:window-height="1017"
     inkscape:window-x="1912"
     inkscape:window-y="-8"
     inkscape:window-maximized="1"
     inkscape:current-layer="svg1" /><defs
     id="defs1" /><g
     inkscape:label="Capa 1"
     inkscape:groupmode="layer"
     id="layer1"
     style="display:inline" /><g
     inkscape:groupmode="layer"
     id="layer3"
     inkscape:label="backgorund" /><g
     inkscape:groupmode="layer"
     id="layer2"
     inkscape:label="dibujo"
     style="display:inline" /><g
     id="g41"><path
       style="display:inline;fill:#ffffff;fill-opacity:1;fill-rule:evenodd;stroke:none;stroke-width:1.635;stroke-linejoin:bevel;stroke-dasharray:none;stroke-opacity:1"
       d="m 59.23721,105.81303 -8.501219,4.34105 -6.421133,6.60201 -3.888854,6.78289 0.542632,7.14463 3.074908,5.155 6.873324,3.97929 7.235079,2.62272 17.454629,3.61754 29.482944,0.72351 20.98173,-5.155 11.12394,-5.60718 4.06973,-7.41596 -1.71833,-7.86815 -4.7028,-6.14981 -4.52193,-3.88886 -3.07491,-1.35658 -1.53745,-2.08008 -2.44184,-2.53228 -5.60719,-1.53745 -4.25061,-1.08527 -2.44183,-2.532273 -1.35658,-2.894034 -4.52193,-1.447014 -8.229899,-0.271317 -10.943056,0.180877 -3.346225,0.180878 -1.1757,0.452194 -1.1757,1.356577 -3.165348,2.170522 -2.622716,1.89921 -4.521925,1.44702 -5.064554,1.08526 z"
       id="path39" /><path
       style="display:inline;fill:#ffcd9a;fill-opacity:1;fill-rule:evenodd;stroke:none;stroke-width:1.635;stroke-linejoin:bevel;stroke-dasharray:none;stroke-opacity:1"
       d="m 86.278319,108.43575 4.7028,1.98965 2.984471,2.62271 2.170522,1.71833 2.170525,3.88886 3.165353,0.36175 4.61236,-0.54263 5.15499,-2.89403 5.24543,-0.36176 3.25579,-0.45219 c 3.19306,-2.2709 4.38634,-5.42406 1.44701,-10.40042 l -8.32034,-2.44184 -2.65051,-0.71021 c -1.63504,-3.502081 -5.51212,-2.347625 -8.56386,-2.907333 l -10.762178,0.180878 c 0.620912,-4.079868 -4.956231,-2.149501 -7.86815,-2.803594 l -3.436663,1.808771 c -1.064917,3.527098 -1.024982,7.054198 1.989648,10.581298 z"
       id="path40"
       sodipodi:nodetypes="ccccccccccccccccccc" /><path
       style="display:inline;fill:#fbf455;fill-opacity:1;fill-rule:evenodd;stroke:none;stroke-width:1.635;stroke-linejoin:bevel;stroke-dasharray:none;stroke-opacity:1"
       d="m 71.084651,101.7433 1.808771,4.61236 0.813945,5.42631 4.341048,-4.61236 4.702802,0.81395 3.165348,0.99482 2.441837,5.15499 1.537457,3.16535 2.894031,3.79842 6.51157,-0.4522 3.5271,3.70798 1.71833,1.98965 -0.63307,3.43666 -2.53227,1.08526 -1.899213,0.27132 -2.984471,0.72351 -2.080085,1.1757 -2.622714,0.54263 -2.984471,0.90438 c 0,0 -2.622716,1.53746 -3.074908,1.71834 -0.452194,0.18087 -4.702802,-0.90439 -4.702802,-0.90439 l -1.356577,-0.99482 -1.537454,-1.08527 -1.175702,-1.26614 -1.266137,-0.36175 1.718331,-3.5271 -2.260963,-0.36175 -3.888856,-0.27132 -2.170523,0.54263 -5.607187,-2.08008 -1.08526,-2.89404 0.994823,-1.8992 1.989645,-2.17053 0.542631,-1.26614 0.633072,-0.90438 -3.61754,1.98965 -1.808771,1.44701 c 0,0 -1.447017,0.18088 -1.085263,-0.72351 0.361755,-0.90438 1.447017,-4.16017 1.447017,-4.16017 l -0.723508,-0.90438 -0.723509,-1.1757 0.271317,-2.17053 0.994823,-1.44701 c 0,0 0.904386,-1.26614 1.26614,-1.44702 0.361754,-0.18087 2.260962,-2.08008 2.260962,-2.08008 l 1.1757,-1.35658 1.356577,-1.35658 1.447017,-0.99482 z"
       id="path34" /><path
       style="display:inline;fill:#fbf455;fill-opacity:1;fill-rule:evenodd;stroke:none;stroke-width:1.635;stroke-linejoin:bevel;stroke-dasharray:none;stroke-opacity:1"
       d="m 91.885504,118.83617 0.994823,-1.53745 h 2.532279 l 1.537454,-0.18088 2.170523,1.6279 0.09044,1.44701 -3.165348,1.26614 -3.346225,-0.18088 -0.633069,-1.35657 z"
       id="path35" /><path
       style="display:inline;fill:#fbf455;fill-opacity:1;fill-rule:evenodd;stroke:none;stroke-width:1.635;stroke-linejoin:bevel;stroke-dasharray:none;stroke-opacity:1"
       d="m 106.53654,119.37881 -1.44702,5.69762 -2.53227,-0.72351 -1.1757,-2.53228 -1.08527,-2.08008 1.98965,-1.08526 h 2.08009 z"
       id="path36" /><path
       style="display:inline;fill:#fbf455;fill-opacity:1;fill-rule:evenodd;stroke:none;stroke-width:1.635;stroke-linejoin:bevel;stroke-dasharray:none;stroke-opacity:1"
       d="m 110.15408,127.42783 3.07491,0.54263 2.26096,0.18088 0.99482,-1.44702 c 0,0 1.44702,-0.90438 1.98965,-1.26614 0.54263,-0.36175 2.17052,-1.26614 2.17052,-1.26614 l 0.72351,-0.81394 0.45219,-0.81395 c 0,0 0,-1.1757 0,-1.53745 0,-0.36176 -1.08526,-2.71316 -1.08526,-2.71316 l -3.34622,-2.98447 c 0,0 -2.80359,0 -3.61754,0.0904 -0.81395,0.0904 -5.8785,1.98965 -5.8785,1.98965 0,0 -1.6279,6.42113 -1.80877,6.87332 -0.18088,0.4522 -1.44702,2.89404 -1.44702,3.88886 0,0.99482 -0.0904,3.16535 -0.0904,3.5271 0,0.36175 0.63307,1.1757 0.63307,1.1757 l 1.98965,-0.36175 0.99482,-1.6279 0.90439,-1.1757 z"
       id="path37" /><path
       style="display:inline;fill:#fbf455;fill-opacity:1;fill-rule:evenodd;stroke:none;stroke-width:1.635;stroke-linejoin:bevel;stroke-dasharray:none;stroke-opacity:1"
       d="m 123.3581,121.09714 c 0,0 1.44701,-0.4522 1.80877,-0.81395 0.36175,-0.36175 1.44701,-1.1757 1.71833,-1.62789 0.27132,-0.45219 1.26614,-1.80877 1.26614,-1.80877 l -0.72351,-1.98965 -2.26096,-0.63307 -5.24543,2.62272 0.0904,1.80877 2.44184,2.17052 z"
       id="path38" /><path
       style="fill:#ffc93d;fill-opacity:1;fill-rule:evenodd;stroke:none;stroke-width:1.635;stroke-linejoin:bevel;stroke-dasharray:none;stroke-opacity:1"
       d="m 68.461937,115.8517 c 2.031386,3.19032 5.150201,6.54794 10.309987,10.21955 l 0.813945,-2.62271 -1.989645,-3.61754 -3.074908,-3.34623 -2.803594,-3.16534 -1.808771,-0.4522 -0.813946,1.53746 z"
       id="path24"
       sodipodi:nodetypes="ccccccccc" /><path
       style="fill:#ffc93d;fill-opacity:1;fill-rule:evenodd;stroke:none;stroke-width:1.635;stroke-linejoin:bevel;stroke-dasharray:none;stroke-opacity:1"
       d="m 72.983859,113.59074 c -1.674767,-4.55584 -1.47622,-7.6052 -2.080083,-11.30481 l 2.532277,-0.63307 1.1757,0.63307 0.361754,2.08009 v 1.62789 l 1.356577,0.45219 1.718331,1.26614 0.271317,2.53228 c 0,0 0.452192,4.06973 0.452192,4.43148 0,0.36176 -0.723509,3.88886 -0.723509,3.88886 l -1.899208,-0.0904 -2.170523,-2.3514 z"
       id="path25"
       sodipodi:nodetypes="cccccccccscccc" /><path
       style="fill:#ffc93d;fill-opacity:1;fill-rule:evenodd;stroke:none;stroke-width:1.635;stroke-linejoin:bevel;stroke-dasharray:none;stroke-opacity:1"
       d="m 79.495432,111.05846 c 1.893637,-2.67975 5.484792,2.59895 8.229902,4.43149 l 0.904385,-0.81395 -2.441839,-4.7028 -1.085263,-1.62789 -2.803591,-0.63307 h -2.803594 l -0.904385,2.17052 z"
       id="path26"
       sodipodi:nodetypes="ccccccccc" /><path
       style="fill:#ffc93d;fill-opacity:1;fill-rule:evenodd;stroke:none;stroke-width:1.635;stroke-linejoin:bevel;stroke-dasharray:none;stroke-opacity:1"
       d="m 96.95006,117.4796 -2.170525,3.16534 3.888857,-0.36175 z"
       id="path27" /><path
       style="fill:#ffc93d;fill-opacity:1;fill-rule:evenodd;stroke:none;stroke-width:1.635;stroke-linejoin:bevel;stroke-dasharray:none;stroke-opacity:1"
       d="m 95.050852,121.36845 c 2.890947,2.92688 5.525358,6.07822 6.511568,10.67174 l 2.26097,-1.08526 0.7235,-4.52192 -0.18087,-1.26614 -1.89921,-1.80877 -2.894033,-3.70798 z"
       id="path28"
       sodipodi:nodetypes="cccccccc" /><path
       style="fill:#ffc93d;fill-opacity:1;fill-rule:evenodd;stroke:none;stroke-width:1.635;stroke-linejoin:bevel;stroke-dasharray:none;stroke-opacity:1"
       d="m 89.714982,117.66047 c -3.316079,3.26231 -6.632157,5.47911 -9.948236,6.3307 l -0.542631,-2.53228 1.899208,-3.70798 1.899209,-1.98964 2.170525,0.18087 1.899208,-0.27131 1.266137,-0.18088 z"
       id="path29"
       sodipodi:nodetypes="ccccccccc" /><path
       style="fill:#ffc93d;fill-opacity:1;fill-rule:evenodd;stroke:none;stroke-width:1.635;stroke-linejoin:bevel;stroke-dasharray:none;stroke-opacity:1"
       d="m 109.43057,127.24695 c 2.15628,-2.41194 4.21976,-5.21828 5.42631,-11.66656 l -5.06456,0.27131 -2.53227,1.53746 -0.81395,4.06973 -1.08526,3.25579 0.0904,1.1757 z"
       id="path30"
       sodipodi:nodetypes="cccccccc" /><path
       style="fill:#ffc93d;fill-opacity:1;fill-rule:evenodd;stroke:none;stroke-width:1.635;stroke-linejoin:bevel;stroke-dasharray:none;stroke-opacity:1"
       d="m 114.31425,131.22625 c -0.68005,0.19301 -5.5806,0.34577 -6.05938,-0.4522 -1.48026,-1.32643 -1.03556,-2.65286 -1.44701,-3.97929 l 4.52192,0.90439 3.07491,1.26613 2.80359,1.6279 z"
       id="path31"
       sodipodi:nodetypes="ccccccc" /><path
       style="fill:#ffc93d;fill-opacity:1;fill-rule:evenodd;stroke:none;stroke-width:1.635;stroke-linejoin:bevel;stroke-dasharray:none;stroke-opacity:1"
       d="m 122.1824,119.37881 c 1.28178,0.13878 3.25602,-2.03063 5.24543,-4.25061 l -0.99482,-1.89921 -2.17053,1.53745 -2.53228,1.44702 h -1.8992 l 0.72351,1.98965 z"
       id="path32"
       sodipodi:nodetypes="cccccccc" /><path
       style="fill:#ffc93d;fill-opacity:1;fill-rule:evenodd;stroke:none;stroke-width:1.635;stroke-linejoin:bevel;stroke-dasharray:none;stroke-opacity:1"
       d="m 67.919305,112.68636 c -1.380841,-0.25661 -2.538101,0.0457 -3.436662,0.99482 -0.04639,0.76912 -0.501383,1.67444 0.813946,1.98965 l 1.537454,0.36175 1.447017,-1.35658 z"
       id="path33"
       sodipodi:nodetypes="cccccc" /><path
       style="display:inline;fill:#000000;fill-opacity:1;fill-rule:evenodd;stroke:#000202;stroke-width:0.635;stroke-linejoin:bevel;stroke-dasharray:none;stroke-opacity:1"
       d="m 85.948355,127.00404 c 0.664029,-0.75922 1.534567,-1.4496 1.726642,-2.36614 -0.064,-1.00817 -0.428013,-1.38631 -1.342943,-0.60752 -0.770857,0.60133 -1.377808,1.24364 -1.470843,2.01442 0.18284,0.4155 -0.258805,1.16406 1.087144,0.95924 z"
       id="path21"
       sodipodi:nodetypes="ccccc" /><path
       style="display:inline;fill:#000000;fill-opacity:1;fill-rule:evenodd;stroke:#000202;stroke-width:0.635;stroke-linejoin:bevel;stroke-dasharray:none;stroke-opacity:1"
       d="m 93.078743,130.58522 c 2.055984,-0.43736 2.256019,0.40525 1.854539,1.66269 z"
       id="path22"
       sodipodi:nodetypes="ccc" /><path
       style="display:inline;fill:#000000;fill-opacity:1;fill-rule:evenodd;stroke:#000202;stroke-width:0.635;stroke-linejoin:bevel;stroke-dasharray:none;stroke-opacity:1"
       d="m 113.76646,125.5332 c 2.34973,0.15029 4.50462,-0.0241 5.3398,-2.39811 l -0.60753,-1.11912 c -0.96312,2.17437 -2.59964,2.74308 -4.66832,2.36613 z"
       id="path23"
       sodipodi:nodetypes="ccccc" /><path
       style="fill:none;fill-rule:evenodd;stroke:#000202;stroke-width:1.898;stroke-linejoin:bevel;stroke-dasharray:none;stroke-opacity:1"
       d="m 52.010458,109.56258 c -62.142621,48.26063 137.565352,50.79211 77.511222,0.4153 l -2.96528,-0.78382 -0.28778,3.83698"
       id="path1"
       sodipodi:nodetypes="cc" /><path
       style="fill:none;fill-rule:evenodd;stroke:#000202;stroke-width:1.635;stroke-linejoin:bevel;stroke-dasharray:none;stroke-opacity:1"
       d="m 57.880633,114.13337 c -38.818488,25.67129 72.259397,37.31168 73.255177,9.22473"
       id="path2"
       sodipodi:nodetypes="cc" /><path
       style="fill:none;fill-rule:evenodd;stroke:#000202;stroke-width:1.635;stroke-linejoin:bevel;stroke-dasharray:none;stroke-opacity:1"
       d="M 53.539585,79.947623 70.722899,108.88794"
       id="path3" /><path
       style="fill:none;fill-rule:evenodd;stroke:#000202;stroke-width:1.635;stroke-linejoin:bevel;stroke-dasharray:none;stroke-opacity:1"
       d="m 91.704627,73.436053 -0.904385,21.524359 c -5.35345,0.170692 -9.101725,-1.219979 -10.671741,2.170526 -0.448819,1.365129 -5.300618,2.004128 -5.426308,4.341052 -4.256684,0.31946 -8.674061,1.94542 -12.480512,3.97929 -2.592509,-0.28131 -4.619151,1.99135 -4.702802,5.06455 -0.527822,3.51536 1.385246,3.77608 3.436662,4.52193 1.585465,-4.20484 3.542893,-4.31808 5.607188,-3.25579 2.260694,0.63677 5.018609,1.11443 1.447014,3.61754 l -8.682093,6.33069 c -1.154243,1.47972 -1.1851,3.40879 1.266137,6.3307 1.617836,3.98937 4.653791,3.15714 7.415956,3.25579 7.430075,1.2053 9.192238,-0.82821 9.948235,-3.43667 2.700502,-3.75056 0.898148,-7.2187 -1.627894,-9.22472 -2.954885,-2.69199 -4.159607,-6.50258 -6.330693,-5.78807"
       id="path4"
       sodipodi:nodetypes="ccccccccccccccc" /><path
       style="fill:none;fill-rule:evenodd;stroke:#000202;stroke-width:1.635;stroke-linejoin:bevel;stroke-dasharray:none;stroke-opacity:1"
       d="m 77.867538,120.01187 1.085263,-12.57095 c -3.695319,-0.3071 -4.023753,-3.25961 -4.431485,-6.14981"
       id="path5"
       sodipodi:nodetypes="ccc" /><path
       style="fill:none;fill-rule:evenodd;stroke:#000202;stroke-width:1.635;stroke-linejoin:bevel;stroke-dasharray:none;stroke-opacity:1"
       d="m 78.771924,121.54933 c 1.907052,-2.56862 2.754866,-7.1498 6.873324,-5.51675 2.68441,-1.6311 3.860555,0.18527 4.883679,2.3514 2.205124,1.95047 3.070226,4.14458 0,7.0542 -3.408471,5.11336 -7.076638,8.70101 -12.390072,2.62272"
       id="path6"
       sodipodi:nodetypes="ccccc" /><path
       style="fill:none;fill-rule:evenodd;stroke:#000202;stroke-width:1.635;stroke-linejoin:bevel;stroke-dasharray:none;stroke-opacity:1"
       d="m 78.952801,107.89312 c 4.048064,-0.39767 7.626442,-0.26694 7.868147,3.61754 0.933947,3.52271 3.129427,3.15137 5.607188,2.71315 5.296611,-1.37113 3.160783,3.58956 7.415955,5.51675 l -6.963764,2.17052"
       id="path7"
       sodipodi:nodetypes="ccccc" /><path
       style="fill:none;fill-rule:evenodd;stroke:#000202;stroke-width:1.635;stroke-linejoin:bevel;stroke-dasharray:none;stroke-opacity:1"
       d="m 99.844091,119.92144 c -0.588747,-2.02726 4.756689,-0.3298 7.054199,-2.17053 -0.50543,2.64132 -1.18365,5.19623 -2.17052,7.59683 -2.4334,-1.01015 -4.04667,-3.39157 -4.883679,-5.4263 z"
       id="path8"
       sodipodi:nodetypes="cccc" /><path
       style="fill:none;fill-rule:evenodd;stroke:#000202;stroke-width:1.635;stroke-linejoin:bevel;stroke-dasharray:none;stroke-opacity:1"
       d="m 75.244821,131.67844 c 2.923296,6.75104 8.537337,7.61397 17.273752,2.53228 4.220463,3.55082 8.621807,-3.5572 11.576127,-2.26097 l 0.45219,-6.78288"
       id="path9"
       sodipodi:nodetypes="cccc" /><path
       style="fill:none;fill-rule:evenodd;stroke:#000202;stroke-width:1.635;stroke-linejoin:bevel;stroke-dasharray:none;stroke-opacity:1"
       d="m 87.634896,129.50791 5.335871,5.06456"
       id="path10" /><path
       style="fill:none;fill-rule:evenodd;stroke:#000202;stroke-width:1.635;stroke-linejoin:bevel;stroke-dasharray:none;stroke-opacity:1"
       d="m 103.98216,131.92817 c 2.11025,3.07699 4.93971,3.05317 7.73791,1.02319 l 5.56362,-2.62193 -12.15043,-4.79623"
       id="path11"
       sodipodi:nodetypes="cccc" /><path
       style="fill:none;fill-rule:evenodd;stroke:#000202;stroke-width:1.635;stroke-linejoin:bevel;stroke-dasharray:none;stroke-opacity:1"
       d="m 116.70815,130.52127 c 2.34787,-0.60295 4.72217,-0.51858 6.90656,-5.37177 -0.76025,-3.24012 -1.91962,-6.35233 -5.56362,-9.5285 -3.92941,-0.8907 -8.38675,-0.73235 -11.38304,2.30219"
       id="path12"
       sodipodi:nodetypes="cccc" /><path
       style="fill:none;fill-rule:evenodd;stroke:#000202;stroke-width:1.635;stroke-linejoin:bevel;stroke-dasharray:none;stroke-opacity:1"
       d="m 123.61471,124.31816 c 7.43774,-2.95846 5.79823,-6.9255 2.62194,-11.0633 -2.117,2.41009 -4.87536,3.72747 -8.18556,2.55799"
       id="path13"
       sodipodi:nodetypes="ccc" /><path
       style="fill:none;fill-rule:evenodd;stroke:#000202;stroke-width:1.635;stroke-linejoin:bevel;stroke-dasharray:none;stroke-opacity:1"
       d="m 126.68429,109.35393 c -0.97141,-2.66775 -2.41166,-5.08154 -7.41816,-5.56362 -4.40348,-0.80379 -7.18996,-1.8185 -7.67396,-3.13353 -0.56392,-3.438988 -4.21475,-5.508637 -7.92976,-5.691523 l -12.662032,0"
       id="path14"
       sodipodi:nodetypes="ccccc" /><path
       style="fill:none;fill-rule:evenodd;stroke:#000202;stroke-width:1.635;stroke-linejoin:bevel;stroke-dasharray:none;stroke-opacity:1"
       d="M 106.9878,108.26679 123.03916,82.87877"
       id="path15" /><path
       style="fill:#000000;fill-rule:evenodd;stroke:#000202;stroke-width:0.635;stroke-linejoin:bevel;stroke-dasharray:none;stroke-opacity:1;fill-opacity:1"
       d="m 105.453,111.46427 c -1.56452,-1.16493 -3.1599,-2.30243 -3.22946,-4.79622 -0.77483,0.5417 -1.34635,1.22416 -1.02319,2.52601 0.3206,1.0572 1.07688,1.78763 2.07836,2.33416 1.06083,0.44918 1.49626,0.0228 2.17429,-0.064 z"
       id="path16"
       sodipodi:nodetypes="ccccc" /><path
       style="fill:#000000;fill-opacity:1;fill-rule:evenodd;stroke:#000202;stroke-width:0.635;stroke-linejoin:bevel;stroke-dasharray:none;stroke-opacity:1"
       d="m 114.72571,111.24045 c 1.43771,-0.28672 2.72181,-0.42321 3.74105,1.21504 -0.10217,-0.97474 0.25945,-2.04169 -1.24702,-2.9097 -2.43725,-0.0699 -2.54749,0.93431 -2.49403,1.69466 z"
       id="path17"
       sodipodi:nodetypes="cccc" /><path
       style="fill:#000000;fill-opacity:1;fill-rule:evenodd;stroke:#000202;stroke-width:0.635;stroke-linejoin:bevel;stroke-dasharray:none;stroke-opacity:1"
       d="m 83.758079,103.08687 c 0.527233,-2.42374 2.092114,-2.06222 3.373344,-2.46207 -0.223885,-1.569494 -1.517373,-1.142396 -3.005635,-0.35172 -0.76688,1.26009 -1.440399,2.47349 -0.367709,2.81379 z"
       id="path18"
       sodipodi:nodetypes="cccc" /><path
       style="fill:#000000;fill-opacity:1;fill-rule:evenodd;stroke:#000202;stroke-width:0.635;stroke-linejoin:bevel;stroke-dasharray:none;stroke-opacity:1"
       d="m 62.127103,108.45864 1.087145,-0.2398 1.518803,-0.55955 c 0.166175,-1.06769 -0.199149,-0.40495 -0.684714,-0.45428 -0.173371,0.54677 -0.352292,0.96548 -1.838554,0.52759 -0.158031,0.3291 -0.386292,0.48088 -0.08268,0.72604 z"
       id="path19"
       sodipodi:nodetypes="cccccc" /><path
       style="fill:#000000;fill-opacity:1;fill-rule:evenodd;stroke:#000202;stroke-width:0.635;stroke-linejoin:bevel;stroke-dasharray:none;stroke-opacity:1"
       d="m 63.022397,126.26862 c 1.801186,1.95513 4.008523,2.12113 6.235094,1.43887 -1.257609,-1.66853 -3.975521,-0.54852 -5.115972,-2.17429 z"
       id="path20"
       sodipodi:nodetypes="cccc" /></g><path
     style="fill:none;fill-opacity:1;fill-rule:evenodd;stroke:#000202;stroke-width:1.898;stroke-linejoin:bevel;stroke-dasharray:none;stroke-opacity:1"
     d="m 51.423527,110.04139 c 1.74617,-1.60474 5.911512,-3.59123 7.789654,-3.62881"
     id="path41"
     sodipodi:nodetypes="cc" /></svg>
