<?xml version="1.0" encoding="UTF-8" standalone="no"?>
<!-- Created with Inkscape (http://www.inkscape.org/) -->

<svg
   width="210mm"
   height="297mm"
   viewBox="0 0 210 297"
   version="1.1"
   id="svg1"
   xml:space="preserve"
   inkscape:version="1.3.2 (091e20e, 2023-11-25, custom)"
   sodipodi:docname="Lomo.svg"
   xmlns:inkscape="http://www.inkscape.org/namespaces/inkscape"
   xmlns:sodipodi="http://sodipodi.sourceforge.net/DTD/sodipodi-0.dtd"
   xmlns="http://www.w3.org/2000/svg"
   xmlns:svg="http://www.w3.org/2000/svg"><sodipodi:namedview
     id="namedview1"
     pagecolor="#ffffff"
     bordercolor="#000000"
     borderopacity="0.25"
     inkscape:showpageshadow="2"
     inkscape:pageopacity="0.0"
     inkscape:pagecheckerboard="0"
     inkscape:deskcolor="#d1d1d1"
     inkscape:document-units="mm"
     inkscape:zoom="0.73139029"
     inkscape:cx="397.18876"
     inkscape:cy="561.25984"
     inkscape:window-width="1920"
     inkscape:window-height="1017"
     inkscape:window-x="1912"
     inkscape:window-y="-8"
     inkscape:window-maximized="1"
     inkscape:current-layer="layer1" /><defs
     id="defs1" /><g
     inkscape:label="Capa 1"
     inkscape:groupmode="layer"
     id="layer1"><g
       style="clip-rule:evenodd;fill-rule:evenodd;image-rendering:optimizeQuality;shape-rendering:geometricPrecision;text-rendering:geometricPrecision;stroke:#000000;stroke-opacity:1;stroke-width:1.35307089;stroke-dasharray:none"
       id="g46"
       transform="matrix(0.26458333,0,0,0.26458333,57.636707,107.34363)"><g
         id="g1"
         style="stroke:#000000;stroke-opacity:1;stroke-width:1.35307089;stroke-dasharray:none"><path
           style="opacity:1;stroke:#000000;stroke-opacity:1;stroke-width:1.35307089;stroke-dasharray:none"
           fill="#d79992"
           d="m 180.5,39.5 c -7.69,-1.7739 -15.523,-2.7739 -23.5,-3 -9.093,1.6926 -18.26,2.6926 -27.5,3 17.038,-6.529 34.038,-6.529 51,0 z"
           id="path1" /></g><g
         id="g2"
         style="stroke:#000000;stroke-opacity:1;stroke-width:1.35307089;stroke-dasharray:none"><path
           style="opacity:0.933;stroke:#000000;stroke-opacity:1;stroke-width:1.35307089;stroke-dasharray:none"
           fill="#d3948c"
           d="m 129.5,39.5 c -0.929,0.8149 -1.929,1.6482 -3,2.5 -4.948,1.0498 -9.948,1.5498 -15,1.5 5.749,-1.9522 11.749,-3.2855 18,-4 z"
           id="path2" /></g><g
         id="g3"
         style="stroke:#000000;stroke-opacity:1;stroke-width:1.35307089;stroke-dasharray:none"><path
           style="opacity:0.486;stroke:#000000;stroke-opacity:1;stroke-width:1.35307089;stroke-dasharray:none"
           fill="#dba09e"
           d="m 111.5,43.5 c -0.652,1.2251 -1.819,1.8917 -3.5,2 -2.498,0.4172 -4.998,0.7505 -7.5,1 3.354,-1.7576 7.021,-2.7576 11,-3 z"
           id="path3" /></g><g
         id="g4"
         style="stroke:#000000;stroke-opacity:1;stroke-width:1.35307089;stroke-dasharray:none"><path
           style="opacity:1;stroke:#000000;stroke-opacity:1;stroke-width:1.35307089;stroke-dasharray:none"
           fill="#f8ad9d"
           d="m 196.5,116.5 c 0.321,1.548 1.321,2.215 3,2 -2.62,0.491 -4.954,1.658 -7,3.5 0.571,1.205 1.238,2.372 2,3.5 0.828,-0.915 1.828,-1.581 3,-2 2.759,1.308 5.593,2.308 8.5,3 7.94,-1.734 15.606,-1.068 23,2 0.688,0.832 0.521,1.498 -0.5,2 -1.107,0.522 -2.274,0.855 -3.5,1 -3.8,-0.933 -7.633,-0.933 -11.5,0 -3.04,0.083 -5.873,-0.584 -8.5,-2 -1.667,0.333 -3.333,0.667 -5,1 -1.852,1.73 -1.686,2.896 0.5,3.5 6.126,1.959 12.46,3.293 19,4 -0.805,1.113 -1.472,2.279 -2,3.5 -0.333,0 -0.667,0 -1,0 -8.805,-3.939 -18.139,-5.439 -28,-4.5 -1.076,1.726 -1.243,3.559 -0.5,5.5 2.391,0.89 3.891,2.557 4.5,5 -10.988,1.997 -21.988,3.997 -33,6 1.827,-1.432 3.494,-3.099 5,-5 0.929,-1.189 1.262,-2.522 1,-4 -7.957,-1.062 -15.957,-1.729 -24,-2 -4.826,-0.195 -9.493,0.471 -14,2 -1.11,1.996 -0.776,3.829 1,5.5 5.018,2.841 10.018,5.675 15,8.5 -5.333,1 -10.667,2 -16,3 0.605,-1.526 1.771,-2.526 3.5,-3 0.49,-1.293 0.657,-2.627 0.5,-4 -2.07,0.051 -3.903,-0.615 -5.5,-2 -3.024,1.449 -5.858,2.282 -8.5,2.5 0.142,-3.621 0.142,-7.455 0,-11.5 -4.703,-0.063 -9.37,0.271 -14,1 0,1.667 0,3.333 0,5 -4.0169,0.316 -8.0169,0.649 -12,1 11.874,-7.974 24.541,-14.64 38,-20 0.235,0.597 0.735,0.93 1.5,1 7.43,-2.566 14.93,-4.899 22.5,-7 2.378,-2.03 1.711,-3.03 -2,-3 1.687,-7.413 3.687,-14.747 6,-22 -0.51,-1.5879 -1.51,-2.7545 -3,-3.5 -7.159,-0.7624 -14.159,-1.5957 -21,-2.5 -11.333,0 -22.667,0 -34,0 -0.0821,-7.3264 -2.7487,-13.4931 -8,-18.5 -5.4382,-0.9325 -9.2716,1.2342 -11.5,6.5 -1.1621,5.9449 -1.6621,11.9449 -1.5,18 -2.6395,6.644 -4.9729,13.477 -7,20.5 0.9158,0.278 1.5825,0.778 2,1.5 -1.6992,-0.16 -3.3659,0.006 -5,0.5 -4.7478,4.327 -8.9145,9.16 -12.5,14.5 -3.5842,7.921 -1.0842,10.921 7.5,9 -3.9873,12.606 -7.3206,25.273 -10,38 0.1657,-4.346 -10e-4,-8.679 -0.5,-13 -0.9057,-2.112 -2.4057,-2.945 -4.5,-2.5 -7.9202,9.003 -13.9202,19.17 -18,30.5 -0.0472,1.5 0.6195,2.5 2,3 4.5316,-0.697 8.1983,-2.864 11,-6.5 2.7794,-0.561 5.446,-1.394 8,-2.5 -2.9196,5.672 -4.9196,11.672 -6,18 -0.6556,-0.778 -1.4889,-1.444 -2.5,-2 -1.8843,1.95 -3.2176,4.284 -4,7 -0.9277,5.355 -1.9277,10.689 -3,16 -1.3903,5.331 -0.2236,9.831 3.5,13.5 10.4136,1.233 13.9136,-3.267 10.5,-13.5 -1.064,-6.69 -2.2307,-13.356 -3.5,-20 10.3333,0 20.6667,0 31,0 -5.0404,3.192 -10.0404,6.526 -15,10 -0.1106,15.701 7.5561,21.535 23,17.5 3.0257,-2.195 6.359,-3.695 10,-4.5 1.1119,-0.765 1.7786,-1.765 2,-3 4.574,6.113 9.408,12.113 14.5,18 0.456,1.244 -0.044,2.077 -1.5,2.5 -18.3421,2.502 -36.6755,5.002 -55,7.5 -7.3489,-0.295 -14.5156,-1.628 -21.5,-4 -0.5,0.333 -1,0.667 -1.5,1 1.7065,1.373 3.0398,3.039 4,5 -7.3717,-3.739 -12.705,-9.406 -16,-17 -1.365,-19.023 -1.0316,-38.023 1,-57 0,-0.333 0,-0.667 0,-1 1.4311,-0.381 2.2645,-1.381 2.5,-3 0.9128,-10.589 3.9128,-20.589 9,-30 0.8256,-3.293 1.3256,-6.626 1.5,-10 1.3221,0.17 2.4887,-0.163 3.5,-1 0.4983,-3.317 0.665,-6.65 0.5,-10 0,-0.333 0,-0.667 0,-1 1,0 2,0 3,0 -0.1602,-1.699 0.0065,-3.366 0.5,-5 5.3968,-7.339 8.5634,-15.673 9.5,-25 2.5899,-1.8699 4.7565,-4.2032 6.5,-7 1.6474,-5.4499 3.4807,-10.7832 5.5,-16 0.4321,-1.2095 1.0987,-2.2095 2,-3 4.2487,-4.8479 8.2487,-9.8479 12,-15 2.929,-3.1363 6.2623,-5.803 10,-8 16.947,-3.6524 33.947,-7.1524 51,-10.5 37.968,-4.3648 55.135,12.4686 51.5,50.5 -1.953,9.055 -4.12,18.055 -6.5,27 4.493,-0.388 8.827,-1.388 13,-3 z"
           id="path4" /></g><g
         id="g5"
         style="stroke:#000000;stroke-opacity:1;stroke-width:1.35307089;stroke-dasharray:none"><path
           style="opacity:1;stroke:#000000;stroke-opacity:1;stroke-width:1.35307089;stroke-dasharray:none"
           fill="#d59590"
           d="m 180.5,39.5 c 13.014,3.1705 20.014,11.3372 21,24.5 -1.102,17.1895 -2.436,34.3562 -4,51.5 -0.333,0 -0.667,0 -1,0 1.19,-15.311 2.19,-30.6444 3,-46 -1.713,-4.7931 -2.379,-9.6264 -2,-14.5 -2.648,-2.8059 -4.648,-5.9725 -6,-9.5 -3.541,-1.259 -7.208,-2.259 -11,-3 0,-1 0,-2 0,-3 z"
           id="path5" /></g><g
         id="g6"
         style="stroke:#000000;stroke-opacity:1;stroke-width:1.35307089;stroke-dasharray:none"><path
           style="opacity:0.925;stroke:#000000;stroke-opacity:1;stroke-width:1.35307089;stroke-dasharray:none"
           fill="#d1938b"
           d="m 100.5,46.5 c -4.44,1.5993 -8.7734,3.5993 -13,6 -3.7377,2.197 -7.071,4.8637 -10,8 0,-1 0,-2 0,-3 2.2905,-3.6703 5.6238,-6.1703 10,-7.5 4.2155,-1.6842 8.5488,-2.8509 13,-3.5 z"
           id="path6" /></g><g
         id="g7"
         style="stroke:#000000;stroke-opacity:1;stroke-width:1.35307089;stroke-dasharray:none"><path
           style="opacity:0.553;stroke:#000000;stroke-opacity:1;stroke-width:1.35307089;stroke-dasharray:none"
           fill="#efc8c0"
           d="m 77.5,57.5 c 0,1 0,2 0,3 -3.7513,5.1521 -7.7513,10.1521 -12,15 3.6455,-6.298 7.6455,-12.298 12,-18 z"
           id="path7" /></g><g
         id="g8"
         style="stroke:#000000;stroke-opacity:1;stroke-width:1.35307089;stroke-dasharray:none"><path
           style="opacity:1;stroke:#000000;stroke-opacity:1;stroke-width:1.35307089;stroke-dasharray:none"
           fill="#fac2b8"
           d="m 133.5,93.5 c -1.998,-2.0998 -4.165,-4.0998 -6.5,-6 -2.47,-8.6553 0.363,-14.4886 8.5,-17.5 10.435,-0.9682 20.768,-0.4682 31,1.5 0.16,1.6992 -0.006,3.3659 -0.5,5 -6.24,7.0547 -13.74,12.5547 -22.5,16.5 -3.317,0.4983 -6.65,0.665 -10,0.5 z"
           id="path8" /></g><g
         id="g9"
         style="stroke:#000000;stroke-opacity:1;stroke-width:1.35307089;stroke-dasharray:none"><path
           style="opacity:1;stroke:#000000;stroke-opacity:1;stroke-width:1.35307089;stroke-dasharray:none"
           fill="#eeb4aa"
           d="m 63.5,78.5 c -2.0193,5.2168 -3.8526,10.5501 -5.5,16 -1.7435,2.7968 -3.9101,5.1301 -6.5,7 3.2387,-8.1469 7.2387,-15.8136 12,-23 z"
           id="path9" /></g><g
         id="g10"
         style="stroke:#000000;stroke-opacity:1;stroke-width:1.35307089;stroke-dasharray:none"><path
           style="opacity:1;stroke:#000000;stroke-opacity:1;stroke-width:1.35307089;stroke-dasharray:none"
           fill="#ee9789"
           d="m 99.5,93.5 c 11.333,0 22.667,0 34,0 6.841,0.9043 13.841,1.7376 21,2.5 1.49,0.7455 2.49,1.9121 3,3.5 -2.313,7.253 -4.313,14.587 -6,22 -7.931,1.486 -15.264,4.486 -22,9 -13.459,5.36 -26.126,12.026 -38,20 -7.1806,3.5 -11.1806,9.167 -12,17 -0.9972,-0.03 -1.6639,0.47 -2,1.5 -2.5562,8.228 -2.5562,16.395 0,24.5 -0.3201,6.027 -0.3201,12.027 0,18 -10.3333,0 -20.6667,0 -31,0 -0.6667,0 -1,-0.333 -1,-1 1.0804,-6.328 3.0804,-12.328 6,-18 1.4279,-2.803 2.0946,-5.803 2,-9 2.6794,-12.727 6.0127,-25.394 10,-38 3.4707,-1.555 7.1374,-2.888 11,-4 0.811,-0.716 1.4777,-1.55 2,-2.5 1.0715,-4.124 1.2382,-8.29 0.5,-12.5 -0.6972,-2.084 -1.8639,-3.751 -3.5,-5 -0.4175,-0.722 -1.0842,-1.222 -2,-1.5 2.0271,-7.023 4.3605,-13.856 7,-20.5 0.0296,6.225 2.3629,11.391 7,15.5 2.3333,0.667 4.6667,0.667 7,0 1.8589,-1.558 3.3589,-3.391 4.5,-5.5 1.3661,-5.26 2.1994,-10.5931 2.5,-16 z"
           id="path10" /></g><g
         id="g11"
         style="stroke:#000000;stroke-opacity:1;stroke-width:1.35307089;stroke-dasharray:none"><path
           style="opacity:1;stroke:#000000;stroke-opacity:1;stroke-width:1.35307089;stroke-dasharray:none"
           fill="#de847b"
           d="m 180.5,39.5 c 0,1 0,2 0,3 3.792,0.741 7.459,1.741 11,3 1.352,3.5275 3.352,6.6941 6,9.5 -0.379,4.8736 0.287,9.7069 2,14.5 -0.81,15.3556 -1.81,30.689 -3,46 0,0.333 0,0.667 0,1 -4.173,1.612 -8.507,2.612 -13,3 2.38,-8.945 4.547,-17.945 6.5,-27 3.635,-38.0314 -13.532,-54.8648 -51.5,-50.5 -17.053,3.3476 -34.053,6.8476 -51,10.5 4.2266,-2.4007 8.56,-4.4007 13,-6 2.502,-0.2495 5.002,-0.5828 7.5,-1 1.681,-0.1083 2.848,-0.7749 3.5,-2 5.052,0.0498 10.052,-0.4502 15,-1.5 1.071,-0.8518 2.071,-1.6851 3,-2.5 9.24,-0.3074 18.407,-1.3074 27.5,-3 7.977,0.2261 15.81,1.2261 23.5,3 z"
           id="path11" /></g><g
         id="g12"
         style="stroke:#000000;stroke-opacity:1;stroke-width:1.35307089;stroke-dasharray:none"><path
           style="opacity:1;stroke:#000000;stroke-opacity:1;stroke-width:1.35307089;stroke-dasharray:none"
           fill="#fac2b7"
           d="m 99.5,93.5 c -0.3006,5.4069 -1.1339,10.74 -2.5,16 -1.1411,2.109 -2.6411,3.942 -4.5,5.5 -2.3333,0.667 -4.6667,0.667 -7,0 -4.6371,-4.109 -6.9704,-9.275 -7,-15.5 -0.1621,-6.0551 0.3379,-12.0551 1.5,-18 2.2284,-5.2658 6.0618,-7.4325 11.5,-6.5 5.2513,5.0069 7.9179,11.1736 8,18.5 z"
           id="path12" /></g><g
         id="g13"
         style="stroke:#000000;stroke-opacity:1;stroke-width:1.35307089;stroke-dasharray:none"><path
           style="opacity:1;stroke:#000000;stroke-opacity:1;stroke-width:1.35307089;stroke-dasharray:none"
           fill="#eebdb1"
           d="m 277.5,116.5 c -1.915,-0.284 -3.581,0.049 -5,1 -9.5,-1.114 -19,-2.114 -28.5,-3 -14.979,1.027 -29.813,2.36 -44.5,4 -1.679,0.215 -2.679,-0.452 -3,-2 0,-0.333 0,-0.667 0,-1 0.333,0 0.667,0 1,0 1.293,0.658 2.793,0.992 4.5,1 25.327,-3.908 50.494,-3.908 75.5,0 z"
           id="path13" /></g><g
         id="g14"
         style="stroke:#000000;stroke-opacity:1;stroke-width:1.35307089;stroke-dasharray:none"><path
           style="opacity:0.894;stroke:#000000;stroke-opacity:1;stroke-width:1.35307089;stroke-dasharray:none"
           fill="#d19087"
           d="m 272.5,117.5 c 1.419,-0.951 3.085,-1.284 5,-1 2.64,0.454 4.973,1.621 7,3.5 5.169,4.003 9.836,8.503 14,13.5 -2.237,-0.949 -4.571,-1.616 -7,-2 -4.331,-7.337 -10.664,-12.004 -19,-14 z"
           id="path14" /></g><g
         id="g15"
         style="stroke:#000000;stroke-opacity:1;stroke-width:1.35307089;stroke-dasharray:none"><path
           style="opacity:1;stroke:#000000;stroke-opacity:1;stroke-width:1.35307089;stroke-dasharray:none"
           fill="#fbc2b4"
           d="m 151.5,121.5 c 3.711,-0.03 4.378,0.97 2,3 -7.57,2.101 -15.07,4.434 -22.5,7 -0.765,-0.07 -1.265,-0.403 -1.5,-1 6.736,-4.514 14.069,-7.514 22,-9 z"
           id="path15" /></g><g
         id="g16"
         style="stroke:#000000;stroke-opacity:1;stroke-width:1.35307089;stroke-dasharray:none"><path
           style="opacity:1;stroke:#000000;stroke-opacity:1;stroke-width:1.35307089;stroke-dasharray:none"
           fill="#f8ad9d"
           d="m 272.5,117.5 c 8.336,1.996 14.669,6.663 19,14 9.388,10.216 18.554,20.549 27.5,31 4.639,6.461 8.139,13.461 10.5,21 -0.638,3.263 -0.638,6.429 0,9.5 -1.651,4.308 -3.318,8.642 -5,13 0.145,0.772 0.478,1.439 1,2 -1.51,0.85 -3.01,1.683 -4.5,2.5 -1.865,-2.021 -4.032,-3.687 -6.5,-5 -2.661,-2.11 -3.661,-4.61 -3,-7.5 -1.996,-2.832 -4.662,-4.665 -8,-5.5 -2.936,-6.108 -6.103,-12.108 -9.5,-18 -7.819,-8.276 -15.152,-7.943 -22,1 -0.497,2.646 -0.664,5.313 -0.5,8 -6.456,-9.029 -11.956,-18.695 -16.5,-29 -1.011,-0.837 -2.178,-1.17 -3.5,-1 4.739,-2.473 8.905,-5.807 12.5,-10 4.729,-7.772 2.562,-12.106 -6.5,-13 -7.131,1.154 -13.798,3.487 -20,7 -0.235,-0.597 -0.735,-0.93 -1.5,-1 -6.074,2.127 -12.24,3.794 -18.5,5 0.528,-1.221 1.195,-2.387 2,-3.5 -6.54,-0.707 -12.874,-2.041 -19,-4 -2.186,-0.604 -2.352,-1.77 -0.5,-3.5 1.667,-0.333 3.333,-0.667 5,-1 2.627,1.416 5.46,2.083 8.5,2 3.867,-0.933 7.7,-0.933 11.5,0 1.226,-0.145 2.393,-0.478 3.5,-1 1.021,-0.502 1.188,-1.168 0.5,-2 -7.394,-3.068 -15.06,-3.734 -23,-2 -2.907,-0.692 -5.741,-1.692 -8.5,-3 -1.172,0.419 -2.172,1.085 -3,2 -0.762,-1.128 -1.429,-2.295 -2,-3.5 2.046,-1.842 4.38,-3.009 7,-3.5 14.687,-1.64 29.521,-2.973 44.5,-4 9.5,0.886 19,1.886 28.5,3 z"
           id="path16" /></g><g
         id="g17"
         style="stroke:#000000;stroke-opacity:1;stroke-width:1.35307089;stroke-dasharray:none"><path
           style="opacity:1;stroke:#000000;stroke-opacity:1;stroke-width:1.35307089;stroke-dasharray:none"
           fill="#eebfb3"
           d="m 51.5,101.5 c -0.9366,9.327 -4.1032,17.661 -9.5,25 -0.4935,1.634 -0.6602,3.301 -0.5,5 -1,0 -2,0 -3,0 3.8219,-10.301 8.1552,-20.301 13,-30 z"
           id="path17" /></g><g
         id="g18"
         style="stroke:#000000;stroke-opacity:1;stroke-width:1.35307089;stroke-dasharray:none"><path
           style="opacity:1;stroke:#000000;stroke-opacity:1;stroke-width:1.35307089;stroke-dasharray:none"
           fill="#f9c3b8"
           d="m 216.5,141.5 c -0.988,6.826 -4.988,10.993 -12,12.5 -5.486,0.7 -9.486,-1.467 -12,-6.5 -0.609,-2.443 -2.109,-4.11 -4.5,-5 -0.743,-1.941 -0.576,-3.774 0.5,-5.5 9.861,-0.939 19.195,0.561 28,4.5 z"
           id="path18" /></g><g
         id="g19"
         style="stroke:#000000;stroke-opacity:1;stroke-width:1.35307089;stroke-dasharray:none"><path
           style="opacity:1;stroke:#000000;stroke-opacity:1;stroke-width:1.35307089;stroke-dasharray:none"
           fill="#fbc1b6"
           d="m 73.5,121.5 c 1.6361,1.249 2.8028,2.916 3.5,5 0.7382,4.21 0.5715,8.376 -0.5,12.5 -0.5223,0.95 -1.189,1.784 -2,2.5 -3.8626,1.112 -7.5293,2.445 -11,4 -8.5842,1.921 -11.0842,-1.079 -7.5,-9 3.5855,-5.34 7.7522,-10.173 12.5,-14.5 1.6341,-0.494 3.3008,-0.66 5,-0.5 z"
           id="path19" /></g><g
         id="g20"
         style="stroke:#000000;stroke-opacity:1;stroke-width:1.35307089;stroke-dasharray:none"><path
           style="opacity:1;stroke:#000000;stroke-opacity:1;stroke-width:1.35307089;stroke-dasharray:none"
           fill="#f9c2b8"
           d="m 159.5,153.5 c -4.893,2.764 -10.227,4.43 -16,5 -4.982,-2.825 -9.982,-5.659 -15,-8.5 -1.776,-1.671 -2.11,-3.504 -1,-5.5 4.507,-1.529 9.174,-2.195 14,-2 8.043,0.271 16.043,0.938 24,2 0.262,1.478 -0.071,2.811 -1,4 -1.506,1.901 -3.173,3.568 -5,5 z"
           id="path20" /></g><g
         id="g21"
         style="stroke:#000000;stroke-opacity:1;stroke-width:1.35307089;stroke-dasharray:none"><path
           style="opacity:1;stroke:#000000;stroke-opacity:1;stroke-width:1.35307089;stroke-dasharray:none"
           fill="#f9c3b8"
           d="m 251.5,153.5 c -2.197,1.345 -4.53,2.511 -7,3.5 -4.333,0.667 -8.667,0.667 -13,0 -2.894,-2.909 -3.727,-6.409 -2.5,-10.5 2.362,-3.527 5.196,-6.527 8.5,-9 6.202,-3.513 12.869,-5.846 20,-7 9.062,0.894 11.229,5.228 6.5,13 -3.595,4.193 -7.761,7.527 -12.5,10 z"
           id="path21" /></g><g
         id="g22"
         style="stroke:#000000;stroke-opacity:1;stroke-width:1.35307089;stroke-dasharray:none"><path
           style="opacity:0.839;stroke:#000000;stroke-opacity:1;stroke-width:1.35307089;stroke-dasharray:none"
           fill="#efc0b4"
           d="m 38.5,132.5 c 0.165,3.35 -0.0017,6.683 -0.5,10 -1.0113,0.837 -2.1779,1.17 -3.5,1 -0.1744,3.374 -0.6744,6.707 -1.5,10 -5.0872,9.411 -8.0872,19.411 -9,30 -0.2355,1.619 -1.0689,2.619 -2.5,3 3.6907,-18.733 9.3574,-36.733 17,-54 z"
           id="path22" /></g><g
         id="g23"
         style="stroke:#000000;stroke-opacity:1;stroke-width:1.35307089;stroke-dasharray:none"><path
           style="opacity:1;stroke:#000000;stroke-opacity:1;stroke-width:1.35307089;stroke-dasharray:none"
           fill="#ee9789"
           d="m 237.5,137.5 c -3.304,2.473 -6.138,5.473 -8.5,9 -1.227,4.091 -0.394,7.591 2.5,10.5 4.333,0.667 8.667,0.667 13,0 2.47,-0.989 4.803,-2.155 7,-3.5 1.322,-0.17 2.489,0.163 3.5,1 4.544,10.305 10.044,19.971 16.5,29 -0.067,1.459 0.266,2.792 1,4 2.286,4.715 3.952,9.715 5,15 -0.18,1.054 -0.513,2.054 -1,3 -7.24,2.614 -14.573,4.114 -22,4.5 -0.873,-1.045 -1.873,-1.878 -3,-2.5 -5.12,-3.28 -10.12,-6.78 -15,-10.5 -1.973,-0.495 -3.973,-0.662 -6,-0.5 0.255,6.151 1.922,11.818 5,17 -0.12,1.086 -0.787,1.753 -2,2 -12.349,3.427 -24.849,6.093 -37.5,8 -0.765,-0.07 -1.265,-0.403 -1.5,-1 5.316,-1.409 10.15,-3.742 14.5,-7 0.667,-2.333 0.667,-4.667 0,-7 -5.765,-7.768 -12.765,-14.102 -21,-19 -3.657,4.252 -5.657,9.252 -6,15 -0.755,5.184 -1.588,10.351 -2.5,15.5 0.069,1.986 0.735,3.486 2,4.5 -0.47,1.193 -1.47,1.86 -3,2 -5.324,1 -10.657,1.5 -16,1.5 -3.487,-4.513 -6.82,-9.013 -10,-13.5 1.123,-6.203 2.956,-12.203 5.5,-18 1.191,-5.267 1.691,-10.601 1.5,-16 -2.489,-0.202 -4.823,0.298 -7,1.5 -3.5,2.669 -6.833,5.502 -10,8.5 -1.333,0 -2.667,0 -4,0 -0.278,-4.444 -2.111,-8.111 -5.5,-11 -1.98,-5.954 -4.48,-11.62 -7.5,-17 0,-0.667 0.333,-1 1,-1 0.333,0 0.667,0 1,0 5.333,-1 10.667,-2 16,-3 5.773,-0.57 11.107,-2.236 16,-5 11.012,-2.003 22.012,-4.003 33,-6 2.514,5.033 6.514,7.2 12,6.5 7.012,-1.507 11.012,-5.674 12,-12.5 0.333,0 0.667,0 1,0 6.26,-1.206 12.426,-2.873 18.5,-5 0.765,0.07 1.265,0.403 1.5,1 z"
           id="path23" /></g><g
         id="g24"
         style="stroke:#000000;stroke-opacity:1;stroke-width:1.35307089;stroke-dasharray:none"><path
           style="opacity:0.965;stroke:#000000;stroke-opacity:1;stroke-width:1.35307089;stroke-dasharray:none"
           fill="#d5a19a"
           d="m 314.5,151.5 c 4.471,4.285 8.471,8.952 12,14 -2.822,-2.262 -5.655,-4.595 -8.5,-7 -0.989,-2.47 -2.155,-4.803 -3.5,-7 z"
           id="path24" /></g><g
         id="g25"
         style="stroke:#000000;stroke-opacity:1;stroke-width:1.35307089;stroke-dasharray:none"><path
           style="opacity:1;stroke:#000000;stroke-opacity:1;stroke-width:1.35307089;stroke-dasharray:none"
           fill="#fbc2b8"
           d="m 126.5,161.5 c -0.667,0 -1,0.333 -1,1 -6.545,6.7 -13.879,12.533 -22,17.5 -8.6256,1.594 -11.9589,-1.906 -10,-10.5 5.0178,-1.84 9.684,-4.34 14,-7.5 5.887,-1.976 11.887,-2.976 18,-3 0.752,0.671 1.086,1.504 1,2.5 z"
           id="path25" /></g><g
         id="g26"
         style="stroke:#000000;stroke-opacity:1;stroke-width:1.35307089;stroke-dasharray:none"><path
           style="opacity:1;stroke:#000000;stroke-opacity:1;stroke-width:1.35307089;stroke-dasharray:none"
           fill="#f8ad9d"
           d="m 127.5,161.5 c -0.333,0 -0.667,0 -1,0 0.086,-0.996 -0.248,-1.829 -1,-2.5 -6.113,0.024 -12.113,1.024 -18,3 -4.316,3.16 -8.9822,5.66 -14,7.5 -1.9589,8.594 1.3744,12.094 10,10.5 8.121,-4.967 15.455,-10.8 22,-17.5 3.02,5.38 5.52,11.046 7.5,17 3.389,2.889 5.222,6.556 5.5,11 1.333,0 2.667,0 4,0 -1.788,1.122 -3.788,1.289 -6,0.5 -9.464,-10.836 -17.297,-10.003 -23.5,2.5 -0.338,4.838 0.496,9.504 2.5,14 6.756,6.697 14.423,11.864 23,15.5 4.317,0.981 8.317,0.481 12,-1.5 0,1 0,2 0,3 -1.175,-0.219 -2.175,0.114 -3,1 5.198,1.548 9.198,4.548 12,9 -8.092,-7.022 -15.592,-6.355 -22.5,2 -0.998,4.857 -0.165,9.357 2.5,13.5 2.333,0.667 4.667,0.667 7,0 3.227,-2.112 6.56,-3.945 10,-5.5 -3.97,4.416 -8.803,7.75 -14.5,10 -1.552,-1.466 -3.386,-2.466 -5.5,-3 -3.009,-4.17 -7.009,-6.837 -12,-8 -4.406,-3.917 -7.906,-8.583 -10.5,-14 -10.817,-11.813 -20.4838,-24.48 -29,-38 -2.7789,-7.782 -4.6122,-15.782 -5.5,-24 0.8194,-7.833 4.8194,-13.5 12,-17 3.9831,-0.351 7.9831,-0.684 12,-1 0,-1.667 0,-3.333 0,-5 4.63,-0.729 9.297,-1.063 14,-1 0.142,4.045 0.142,7.879 0,11.5 2.642,-0.218 5.476,-1.051 8.5,-2.5 1.597,1.385 3.43,2.051 5.5,2 0.157,1.373 -0.01,2.707 -0.5,4 -1.729,0.474 -2.895,1.474 -3.5,3 z"
           id="path26" /></g><g
         id="g27"
         style="stroke:#000000;stroke-opacity:1;stroke-width:1.35307089;stroke-dasharray:none"><path
           style="opacity:1;stroke:#000000;stroke-opacity:1;stroke-width:1.35307089;stroke-dasharray:none"
           fill="#f9c3b8"
           d="m 53.5,183.5 c 0.0946,3.197 -0.5721,6.197 -2,9 -2.554,1.106 -5.2206,1.939 -8,2.5 -2.8017,3.636 -6.4684,5.803 -11,6.5 -1.3805,-0.5 -2.0472,-1.5 -2,-3 4.0798,-11.33 10.0798,-21.497 18,-30.5 2.0943,-0.445 3.5943,0.388 4.5,2.5 0.499,4.321 0.6657,8.654 0.5,13 z"
           id="path27" /></g><g
         id="g28"
         style="stroke:#000000;stroke-opacity:1;stroke-width:1.35307089;stroke-dasharray:none"><path
           style="opacity:1;stroke:#000000;stroke-opacity:1;stroke-width:1.35307089;stroke-dasharray:none"
           fill="#d49187"
           d="m 326.5,165.5 c 6.214,6.419 10.381,14.086 12.5,23 2.553,9.288 2.887,18.621 1,28 -0.608,1.566 -1.442,2.9 -2.5,4 0.768,-4.475 1.434,-8.975 2,-13.5 -0.071,-6.097 -1.238,-11.93 -3.5,-17.5 -0.333,0.333 -0.667,0.667 -1,1 -0.333,-3.667 -0.667,-7.333 -1,-11 -2.78,-4.562 -5.28,-9.228 -7.5,-14 z"
           id="path28" /></g><g
         id="g29"
         style="stroke:#000000;stroke-opacity:1;stroke-width:1.35307089;stroke-dasharray:none"><path
           style="opacity:1;stroke:#000000;stroke-opacity:1;stroke-width:1.35307089;stroke-dasharray:none"
           fill="#fac2b7"
           d="m 45.5,210.5 c 0,0.667 0.3333,1 1,1 1.2693,6.644 2.436,13.31 3.5,20 3.4136,10.233 -0.0864,14.733 -10.5,13.5 -3.7236,-3.669 -4.8903,-8.169 -3.5,-13.5 1.0723,-5.311 2.0723,-10.645 3,-16 0.7824,-2.716 2.1157,-5.05 4,-7 1.0111,0.556 1.8444,1.222 2.5,2 z"
           id="path29" /></g><g
         id="g30"
         style="stroke:#000000;stroke-opacity:1;stroke-width:1.35307089;stroke-dasharray:none"><path
           style="opacity:0.704;stroke:#000000;stroke-opacity:1;stroke-width:1.35307089;stroke-dasharray:none"
           fill="#ecbcb1"
           d="m 21.5,187.5 c -2.0316,18.977 -2.365,37.977 -1,57 -1.3873,-2.377 -2.2206,-5.043 -2.5,-8 -1.2832,-16.655 -0.1166,-32.989 3.5,-49 z"
           id="path30" /></g><g
         id="g31"
         style="stroke:#000000;stroke-opacity:1;stroke-width:1.35307089;stroke-dasharray:none"><path
           style="opacity:1;stroke:#000000;stroke-opacity:1;stroke-width:1.35307089;stroke-dasharray:none"
           fill="#fac2b7"
           d="m 77.5,193.5 c 5.0929,13.52 11.7595,26.187 20,38 -0.2214,1.235 -0.8881,2.235 -2,3 -3.641,0.805 -6.9743,2.305 -10,4.5 -15.4439,4.035 -23.1106,-1.799 -23,-17.5 4.9596,-3.474 9.9596,-6.808 15,-10 -0.3201,-5.973 -0.3201,-11.973 0,-18 z"
           id="path31" /></g><g
         id="g32"
         style="stroke:#000000;stroke-opacity:1;stroke-width:1.35307089;stroke-dasharray:none"><path
           style="opacity:0.714;stroke:#000000;stroke-opacity:1;stroke-width:1.35307089;stroke-dasharray:none"
           fill="#da9f94"
           d="m 315.5,233.5 c -3.251,2.457 -6.918,4.124 -11,5 2.869,-3.112 6.535,-4.779 11,-5 z"
           id="path32" /></g><g
         id="g33"
         style="stroke:#000000;stroke-opacity:1;stroke-width:1.35307089;stroke-dasharray:none"><path
           style="opacity:1;stroke:#000000;stroke-opacity:1;stroke-width:1.35307089;stroke-dasharray:none"
           fill="#d8948a"
           d="m 304.5,238.5 c -7.913,4.453 -16.246,8.119 -25,11 2.763,-2.555 6.096,-4.388 10,-5.5 1.495,-2.161 3.328,-3.995 5.5,-5.5 3,0.286 6.166,0.286 9.5,0 z"
           id="path33" /></g><g
         id="g34"
         style="stroke:#000000;stroke-opacity:1;stroke-width:1.35307089;stroke-dasharray:none"><path
           style="opacity:1;stroke:#000000;stroke-opacity:1;stroke-width:1.35307089;stroke-dasharray:none"
           fill="#de857b"
           d="m 291.5,131.5 c 2.429,0.384 4.763,1.051 7,2 5.676,5.677 11.009,11.677 16,18 1.345,2.197 2.511,4.53 3.5,7 2.845,2.405 5.678,4.738 8.5,7 2.22,4.772 4.72,9.438 7.5,14 0.333,3.667 0.667,7.333 1,11 0.333,-0.333 0.667,-0.667 1,-1 2.262,5.57 3.429,11.403 3.5,17.5 -0.566,4.525 -1.232,9.025 -2,13.5 -1.216,1.951 -2.882,3.451 -5,4.5 -5.41,3.372 -11.077,6.205 -17,8.5 -4.465,0.221 -8.131,1.888 -11,5 -3.334,0.286 -6.5,0.286 -9.5,0 -2.172,1.505 -4.005,3.339 -5.5,5.5 -3.904,1.112 -7.237,2.945 -10,5.5 -0.333,0 -0.667,0 -1,0 -9.157,2.24 -18.157,5.074 -27,8.5 -0.752,0.671 -1.086,1.504 -1,2.5 -0.667,0 -1.333,0 -2,0 -18.914,4.929 -37.914,9.429 -57,13.5 -10.661,0.5 -21.328,0.667 -32,0.5 -0.73,-1.545 -2.063,-2.378 -4,-2.5 -4.01,-0.501 -8.01,-1.001 -12,-1.5 0.418,-0.722 1.084,-1.222 2,-1.5 -4.749,-1.209 -9.082,-3.209 -13,-6 0.333,-0.333 0.667,-0.667 1,-1 -3.155,-3.821 -6.989,-4.321 -11.5,-1.5 -1.31,0.63 -2.144,1.63 -2.5,3 -0.333,0 -0.667,0 -1,0 -15.798,2.196 -31.6311,3.862 -47.5,5 -4.1667,-0.167 -8.3333,-0.333 -12.5,-0.5 -5.6187,-1.167 -11.2854,-2.333 -17,-3.5 -2.174,-0.25 -3.8406,-1.25 -5,-3 -0.9602,-1.961 -2.2935,-3.627 -4,-5 0.5,-0.333 1,-0.667 1.5,-1 6.9844,2.372 14.1511,3.705 21.5,4 18.3245,-2.498 36.6579,-4.998 55,-7.5 1.456,-0.423 1.956,-1.256 1.5,-2.5 -5.092,-5.887 -9.926,-11.887 -14.5,-18 -8.2405,-11.813 -14.9071,-24.48 -20,-38 -2.5562,-8.105 -2.5562,-16.272 0,-24.5 0.3361,-1.03 1.0028,-1.53 2,-1.5 0.8878,8.218 2.7211,16.218 5.5,24 8.5162,13.52 18.183,26.187 29,38 2.594,5.417 6.094,10.083 10.5,14 7.492,10.578 17.825,15.578 31,15 14.725,-1.318 29.392,-3.151 44,-5.5 29.331,-5.999 58.664,-11.999 88,-18 8.736,-2.871 17.07,-6.537 25,-11 14.564,-9.88 20.231,-23.38 17,-40.5 -2.361,-7.539 -5.861,-14.539 -10.5,-21 -8.946,-10.451 -18.112,-20.784 -27.5,-31 z"
           id="path34" /></g><g
         id="g35"
         style="stroke:#000000;stroke-opacity:1;stroke-width:1.35307089;stroke-dasharray:none"><path
           style="opacity:1;stroke:#000000;stroke-opacity:1;stroke-width:1.35307089;stroke-dasharray:none"
           fill="#fbc2b7"
           d="m 159.5,234.5 c 1.955,4.329 0.955,7.662 -3,10 -3.44,1.555 -6.773,3.388 -10,5.5 -2.333,0.667 -4.667,0.667 -7,0 -2.665,-4.143 -3.498,-8.643 -2.5,-13.5 6.908,-8.355 14.408,-9.022 22.5,-2 z"
           id="path35" /></g><g
         id="g36"
         style="stroke:#000000;stroke-opacity:1;stroke-width:1.35307089;stroke-dasharray:none"><path
           style="opacity:1;stroke:#000000;stroke-opacity:1;stroke-width:1.35307089;stroke-dasharray:none"
           fill="#fac2b8"
           d="m 251.5,207.5 c 0.531,2.044 1.698,3.711 3.5,5 0.667,1.667 0.667,3.333 0,5 -2.414,1.791 -4.914,3.457 -7.5,5 -2.301,0.896 -4.634,1.062 -7,0.5 -1.314,-3.465 -2.98,-6.632 -5,-9.5 -3.078,-5.182 -4.745,-10.849 -5,-17 2.027,-0.162 4.027,0.005 6,0.5 4.88,3.72 9.88,7.22 15,10.5 z"
           id="path36" /></g><g
         id="g37"
         style="stroke:#000000;stroke-opacity:1;stroke-width:1.35307089;stroke-dasharray:none"><path
           style="opacity:1;stroke:#000000;stroke-opacity:1;stroke-width:1.35307089;stroke-dasharray:none"
           fill="#f8ad9d"
           d="m 329.5,183.5 c 3.231,17.12 -2.436,30.62 -17,40.5 -7.93,4.463 -16.264,8.129 -25,11 -29.336,6.001 -58.669,12.001 -88,18 -14.608,2.349 -29.275,4.182 -44,5.5 -13.175,0.578 -23.508,-4.422 -31,-15 4.991,1.163 8.991,3.83 12,8 2.114,0.534 3.948,1.534 5.5,3 5.697,-2.25 10.53,-5.584 14.5,-10 3.955,-2.338 4.955,-5.671 3,-10 -2.802,-4.452 -6.802,-7.452 -12,-9 0.825,-0.886 1.825,-1.219 3,-1 0,-1 0,-2 0,-3 -0.106,-2.579 0.561,-4.912 2,-7 3.18,4.487 6.513,8.987 10,13.5 5.343,0 10.676,-0.5 16,-1.5 1.53,-0.14 2.53,-0.807 3,-2 4.463,0.077 8.796,-0.59 13,-2 0.235,0.597 0.735,0.93 1.5,1 12.651,-1.907 25.151,-4.573 37.5,-8 1.213,-0.247 1.88,-0.914 2,-2 2.02,2.868 3.686,6.035 5,9.5 2.366,0.562 4.699,0.396 7,-0.5 2.586,-1.543 5.086,-3.209 7.5,-5 0.667,-1.667 0.667,-3.333 0,-5 -1.802,-1.289 -2.969,-2.956 -3.5,-5 1.127,0.622 2.127,1.455 3,2.5 7.427,-0.386 14.76,-1.886 22,-4.5 0.487,-0.946 0.82,-1.946 1,-3 -1.048,-5.285 -2.714,-10.285 -5,-15 8.551,8.441 18.884,13.441 31,15 0.747,-3.253 0.747,-6.586 0,-10 3.338,0.835 6.004,2.668 8,5.5 -0.661,2.89 0.339,5.39 3,7.5 2.468,1.313 4.635,2.979 6.5,5 1.49,-0.817 2.99,-1.65 4.5,-2.5 -0.522,-0.561 -0.855,-1.228 -1,-2 1.682,-4.358 3.349,-8.692 5,-13 -0.638,-3.071 -0.638,-6.237 0,-9.5 z"
           id="path37" /></g><g
         id="g38"
         style="stroke:#000000;stroke-opacity:1;stroke-width:1.35307089;stroke-dasharray:none"><path
           style="opacity:1;stroke:#000000;stroke-opacity:1;stroke-width:1.35307089;stroke-dasharray:none"
           fill="#f9c3b7"
           d="m 194.5,222.5 c -4.204,1.41 -8.537,2.077 -13,2 -1.265,-1.014 -1.931,-2.514 -2,-4.5 0.912,-5.149 1.745,-10.316 2.5,-15.5 0.343,-5.748 2.343,-10.748 6,-15 8.235,4.898 15.235,11.232 21,19 0.667,2.333 0.667,4.667 0,7 -4.35,3.258 -9.184,5.591 -14.5,7 z"
           id="path38" /></g><g
         id="g39"
         style="stroke:#000000;stroke-opacity:1;stroke-width:1.35307089;stroke-dasharray:none"><path
           style="opacity:1;stroke:#000000;stroke-opacity:1;stroke-width:1.35307089;stroke-dasharray:none"
           fill="#f9c2b8"
           d="m 152.5,214.5 c -1.439,2.088 -2.106,4.421 -2,7 -3.683,1.981 -7.683,2.481 -12,1.5 -8.577,-3.636 -16.244,-8.803 -23,-15.5 -2.004,-4.496 -2.838,-9.162 -2.5,-14 6.203,-12.503 14.036,-13.336 23.5,-2.5 2.212,0.789 4.212,0.622 6,-0.5 3.167,-2.998 6.5,-5.831 10,-8.5 2.177,-1.202 4.511,-1.702 7,-1.5 0.191,5.399 -0.309,10.733 -1.5,16 -2.544,5.797 -4.377,11.797 -5.5,18 z"
           id="path39" /></g><g
         id="g40"
         style="stroke:#000000;stroke-opacity:1;stroke-width:1.35307089;stroke-dasharray:none"><path
           style="opacity:1;stroke:#000000;stroke-opacity:1;stroke-width:1.35307089;stroke-dasharray:none"
           fill="#fac2b8"
           d="m 303.5,192.5 c 0.747,3.414 0.747,6.747 0,10 -12.116,-1.559 -22.449,-6.559 -31,-15 -0.734,-1.208 -1.067,-2.541 -1,-4 -0.164,-2.687 0.003,-5.354 0.5,-8 6.848,-8.943 14.181,-9.276 22,-1 3.397,5.892 6.564,11.892 9.5,18 z"
           id="path40" /></g><g
         id="g41"
         style="stroke:#000000;stroke-opacity:1;stroke-width:1.35307089;stroke-dasharray:none"><path
           style="opacity:0.533;stroke:#000000;stroke-opacity:1;stroke-width:1.35307089;stroke-dasharray:none"
           fill="#d39892"
           d="m 278.5,249.5 c -9.104,4.039 -18.438,7.706 -28,11 -0.086,-0.996 0.248,-1.829 1,-2.5 8.843,-3.426 17.843,-6.26 27,-8.5 z"
           id="path41" /></g><g
         id="g42"
         style="stroke:#000000;stroke-opacity:1;stroke-width:1.35307089;stroke-dasharray:none"><path
           style="opacity:1;stroke:#000000;stroke-opacity:1;stroke-width:1.35307089;stroke-dasharray:none"
           fill="#d98f89"
           d="m 143.5,270.5 c -6.62,-2.06 -12.786,-5.06 -18.5,-9 -1.725,0.964 -3.559,1.631 -5.5,2 0.356,-1.37 1.19,-2.37 2.5,-3 4.511,-2.821 8.345,-2.321 11.5,1.5 -0.333,0.333 -0.667,0.667 -1,1 3.918,2.791 8.251,4.791 13,6 -0.916,0.278 -1.582,0.778 -2,1.5 z"
           id="path42" /></g><g
         id="g43"
         style="stroke:#000000;stroke-opacity:1;stroke-width:1.35307089;stroke-dasharray:none"><path
           style="opacity:0.502;stroke:#000000;stroke-opacity:1;stroke-width:1.35307089;stroke-dasharray:none"
           fill="#d69a95"
           d="m 248.5,260.5 c -23.517,9.334 -48.017,14.668 -73.5,16 -5.37,-0.205 -10.537,-0.872 -15.5,-2 10.672,0.167 21.339,0 32,-0.5 19.086,-4.071 38.086,-8.571 57,-13.5 z"
           id="path43" /></g><g
         id="g44"
         style="stroke:#000000;stroke-opacity:1;stroke-width:1.35307089;stroke-dasharray:none"><path
           style="opacity:0.283;stroke:#000000;stroke-opacity:1;stroke-width:1.35307089;stroke-dasharray:none"
           fill="#d69a93"
           d="m 118.5,263.5 c -22.5787,5.932 -45.5787,7.432 -69,4.5 -2.9757,-0.705 -5.6423,-1.871 -8,-3.5 5.7146,1.167 11.3813,2.333 17,3.5 4.1667,0.167 8.3333,0.333 12.5,0.5 15.8689,-1.138 31.702,-2.804 47.5,-5 z"
           id="path44" /></g><g
         id="g45"
         style="stroke:#000000;stroke-opacity:1;stroke-width:1.35307089;stroke-dasharray:none"><path
           style="opacity:0.631;stroke:#000000;stroke-opacity:1;stroke-width:1.35307089;stroke-dasharray:none"
           fill="#ce968d"
           d="m 143.5,270.5 c 3.99,0.499 7.99,0.999 12,1.5 1.937,0.122 3.27,0.955 4,2.5 -5.67,-0.417 -11.003,-1.751 -16,-4 z"
           id="path45" /></g></g></g></svg>
