<?xml version="1.0" encoding="UTF-8" standalone="no"?>
<!-- Created with Inkscape (http://www.inkscape.org/) -->

<svg
   width="210mm"
   height="297mm"
   viewBox="0 0 210 297"
   version="1.1"
   id="svg1"
   inkscape:version="1.3.2 (091e20e, 2023-11-25, custom)"
   sodipodi:docname="Tomate.svg"
   xmlns:inkscape="http://www.inkscape.org/namespaces/inkscape"
   xmlns:sodipodi="http://sodipodi.sourceforge.net/DTD/sodipodi-0.dtd"
   xmlns="http://www.w3.org/2000/svg"
   xmlns:svg="http://www.w3.org/2000/svg">
  <sodipodi:namedview
     id="namedview1"
     pagecolor="#ffffff"
     bordercolor="#000000"
     borderopacity="0.25"
     inkscape:showpageshadow="2"
     inkscape:pageopacity="0.0"
     inkscape:pagecheckerboard="0"
     inkscape:deskcolor="#d1d1d1"
     inkscape:document-units="mm"
     inkscape:zoom="0.36569515"
     inkscape:cx="471.70437"
     inkscape:cy="735.58537"
     inkscape:window-width="960"
     inkscape:window-height="1040"
     inkscape:window-x="2880"
     inkscape:window-y="0"
     inkscape:window-maximized="0"
     inkscape:current-layer="layer1" />
  <defs
     id="defs1" />
  <g
     inkscape:label="Capa 1"
     inkscape:groupmode="layer"
     id="layer1">
    <g
       id="g35"
       transform="matrix(0.54203766,0,0,0.54203766,66.744909,-112.7044)">
      <path
         d="m 80.386034,348.81559 c -1.19945,1.97556 -3.064399,1.62563 -3.240789,8.61063 -0.21167,6.985 -0.104243,11.42408 1.201027,20.2788 0.45861,2.99861 3.956617,17.28992 0.460207,17.17338 2.455097,1.90619 -9.969623,-2.20067 -11.416013,-2.76512 -3.21028,-1.34055 -6.766236,1.84113 -11.810966,0.74751 -2.998609,-0.635 1.644495,2.64976 -2.694665,2.64976 -5.36223,0 -0.545491,-0.61951 -2.591601,0.40352 -3.31611,1.65805 -11.584505,-5.3502 -9.750065,-4.85631 0.3175,0.10583 3.249901,-1.2022 4.907961,-0.95525 l 2.57766,0.41184 -9.233984,-4.395 c -8.60778,0.635 -15.13417,2.43417 -22.93056,6.38528 -6.8438904,3.42194 -13.6172194,9.27805 -18.1327744,15.62805 -2.434167,3.42195 -6.138334,10.75973 -7.584723,14.95778 -4.7272216,13.89945 -4.4802766,29.28056 0.740834,46.56667 4.480277,14.85194 10.16,25.01194 18.626663,33.3375 11.2536104,11.07722 26.0702804,18.55611 44.0972294,22.225 10.12472,2.04611 14.81666,2.43417 28.39861,2.46944 13.44083,0 17.10972,-0.28222 26.281935,-2.15194 27.26972,-5.50333 48.40111,-20.49639 58.7375,-41.5925 6.49111,-13.29972 10.19528,-34.46639 8.32556,-47.44861 -2.57528,-17.63889 -17.39195,-37.71195 -33.90195,-45.86111 -7.58472,-3.77473 -14.49916,-5.15056 -23.98889,-4.83306 -3.10444,0.10583 -6.985,0.42333 -8.60777,0.74083 -1.65806,0.3175 -7.60607,0.51728 -7.67663,0.41145 -0.35277,-0.35278 4.82104,-4.09284 7.78437,-7.0209 2.01084,-2.01083 0.42583,-0.57398 0.28472,-0.92676 -0.67028,-1.69333 -7.42156,2.65024 -13.524617,4.76691 -3.56305,1.23472 -8.290276,3.63361 -10.477496,5.64444 -0.52917,0.49389 -7.40833,1.83886 -6.288265,0.74084 -0.45861,-0.49389 -1.666901,-17.33744 -1.490511,-22.91133 0.24695,-7.12611 -0.404687,-9.96857 1.182813,-17.27107 0.635,-2.75166 -6.55403,3.01079 0.636587,-1.3521 -0.17638,-0.52917 3.132838,-0.15383 0.980888,-0.15383 -1.05833,0 0.646865,-0.53668 0.117705,0.34526 z m -0.739559,-5.10013 c 4.58611,0.91722 4.79777,0.98778 4.1275,1.41111 -0.38806,0.24695 -0.42334,0.35278 -0.0706,0.35278 0.24694,0 0.38806,0.14111 0.28222,0.3175 -0.28222,0.45861 -1.23472,4.93889 -2.01083,9.73667 -1.34056,8.07861 -1.44639,22.47194 -0.21167,29.80972 l 0.45861,2.64583 1.27,0.0353 c 0.74084,0.0353 1.23473,-0.0706 1.16417,-0.21167 -0.24694,-0.38805 2.32833,-2.64583 5.00944,-4.37444 4.51556,-2.89278 10.371665,-4.65667 16.474725,-4.93889 l 3.4925,-0.14111 -1.72861,1.79917 c -0.9525,0.98777 -1.79917,1.905 -1.905,2.01083 -0.10584,0.10583 -0.70556,0.91722 -1.30528,1.83444 -0.56445,0.91723 -0.88354,1.65766 -1.30528,1.51695 -0.10583,-0.10583 0.65402,0.39712 0.36226,0.33932 0.0706,0.14111 -0.71506,0.86014 -1.2795,1.98903 -1.76389,3.42195 -1.65806,3.59834 2.57528,4.90361 4.23333,1.34056 9.59555,3.88056 12.27666,5.89139 2.15195,1.62278 4.7625,4.23334 4.51556,4.51556 -0.10584,0.10583 -2.39889,-0.21167 -5.11528,-0.67028 -7.97278,-1.41111 -19.085275,-2.43417 -20.073055,-1.86972 -0.9525,0.52916 -0.56444,1.44639 1.55223,3.42194 2.398885,2.25778 3.633605,3.88056 4.409715,5.75028 l 0.56444,1.34056 -5.926655,-3.06917 c -12.31195,-6.45583 -13.6525,-6.94972 -18.59139,-6.985 -3.28084,0 -3.66889,0.0705 -5.715,1.12889 -1.19945,0.59972 -3.59834,2.15194 -5.36222,3.42194 -1.79917,1.27 -3.38667,2.2225 -3.59834,2.11667 -0.17639,-0.14111 -0.28222,-0.0706 -0.24694,0.10583 0.0705,0.17639 -0.84667,1.02306 -2.01084,1.86972 -3.06916,2.25778 -4.05694,2.8575 -4.05694,2.43417 0,-0.17639 0.17639,-0.35278 0.38806,-0.35278 0.17638,0 0.24694,-0.14111 0.14111,-0.35277 -0.35278,-0.52917 2.78694,-6.42056 6.87916,-12.87639 0.42334,-0.67028 0.42334,-0.91723 0.0353,-1.37584 -0.635,-0.74083 -0.9525,-0.74083 -5.89139,0.45861 -4.7625,1.16417 -8.501939,2.57528 -12.664719,4.69195 -3.175,1.62278 -8.67833,5.11528 -9.06639,5.715 -0.38805,0.56444 -0.35278,0.10583 0.24695,-2.15195 1.41111,-5.43277 5.00944,-9.87777 10.08944,-12.41777 1.72861,-0.88195 3.28083,-1.44639 3.73944,-1.34056 0.42334,0.0706 0.70556,0.0353 0.635,-0.10583 -0.21166,-0.3175 1.940279,-0.70556 3.915839,-0.70556 1.44639,0 1.905,-0.38805 1.905,-1.5875 0,-1.34055 -11.535839,-5.50333 -18.485559,-6.70278 l -1.34055,-0.21166 1.16416,-0.88195 c 0.67028,-0.49389 2.04611,-1.12889 3.10445,-1.44639 5.18583,-1.48166 19.296939,1.19945 29.950829,5.78556 1.5875,0.67028 3.13972,1.12889 3.42195,1.02306 0.70555,-0.24695 0.67027,-0.59973 -0.3175,-7.33778 -1.79917,-11.88861 -2.2225,-19.15584 -1.62278,-26.035 0.35278,-4.37445 1.5875,-10.93611 2.01083,-10.93611 0.10583,0 1.79917,0.3175 3.73945,0.70555 z m -58.561119,57.22056 c 0.88195,0.45861 1.34056,1.86972 0.98778,2.8575 -0.17639,0.45861 -1.48166,2.25778 -2.89278,3.98639 -5.18583,6.42055 -6.35,8.99583 -6.985,15.38111 -0.49388,5.15055 -1.83444,7.51416 -4.2686074,7.69055 -2.116666,0.17639 -2.8575,-0.0353 -3.880555,-1.12889 -3.73944497,-3.91583 -2.328334,-14.14638 2.928055,-21.30777 4.6919474,-6.35 10.4069474,-9.38389 14.1111074,-7.47889 z M 3.1289716,442.31685 c 1.128888,1.16417 1.164166,4.65667 0.03528,6.38528 -1.305277,2.01083 -3.66888897,1.09361 -4.409722,-1.65806 -0.388055,-1.44639 0.141111,-3.35139 1.30527803,-4.62139 0.705555,-0.77611 2.32833297,-0.81138 3.06916697,-0.10583 z"
         id="path1"
         style="fill:#000000;stroke:none;stroke-width:0.0352778"
         sodipodi:nodetypes="ccccccssccccccccccccccccccccccccccscscsccccccccccscccccccccccccccccccssccccccccccssccccccccsssccccccccscccss" />
      <path
         style="fill:#2eb454;fill-opacity:1;fill-rule:evenodd;stroke-width:5.01921;stroke-linejoin:round"
         d="m 220.99999,1553.4812 c 0,-0.9651 6.16854,-12.4932 13.70787,-25.618 7.53932,-13.1248 13.29303,-24.9882 12.78602,-26.3632 -3.39107,-9.1965 -58.57326,8.5604 -91.78379,29.5347 -7.3189,4.6223 -12.70181,6.9536 -12.69056,5.4962 0.0454,-5.8869 10.43522,-24.1885 18.8217,-33.1543 10.90515,-11.6585 26.08844,-19.4727 43.18617,-22.2262 11.37497,-1.8319 15.85079,-4.2511 15.94197,-8.6167 0.0882,-4.2233 -45.49808,-21.2219 -65.86707,-24.5611 l -8.89769,-1.4586 6.89769,-3.6458 c 3.79373,-2.0052 10.4977,-4.2049 14.8977,-4.8883 17.37027,-2.6977 66.38178,8.0055 106.37327,23.2298 6.80531,2.5907 13.06584,4.0178 13.91229,3.1714 0.84646,-0.8465 -0.0726,-13.8785 -2.04226,-28.9601 -7.03256,-53.8467 -8.06201,-71.6746 -5.62019,-97.3299 1.26112,-13.2501 3.43683,-27.7875 4.83491,-32.3054 l 2.54197,-8.2142 12.76095,2.6419 c 7.01853,1.453 13.22572,3.1066 13.79377,3.6746 0.56805,0.5681 -1.10922,12.9756 -3.72726,27.5724 -4.03173,22.4788 -4.76522,33.119 -4.79376,69.5396 -0.0185,23.65 0.70606,48.175 1.61021,54.5 1.50513,10.5291 2.0702,11.5 6.6931,11.5 3.09066,0 8.65926,-3.2167 14.35609,-8.2926 9.96289,-8.8771 31.61968,-19.789 46.3069,-23.3321 4.95,-1.1941 15.3,-2.78 23,-3.5243 l 14,-1.3532 -7.37476,7.7511 c -9.96022,10.4685 -21.62524,30.3135 -21.62524,36.7897 0,4.7977 1.57992,5.8651 17.5,11.8226 9.625,3.6018 22.45,9.278 28.5,12.6138 10.5391,5.811 30.8281,21.3635 29.54436,22.6473 -0.33868,0.3387 -11.84972,-1.1378 -25.58008,-3.2811 -13.73036,-2.1433 -35.08928,-4.4721 -47.46428,-5.175 -21.58558,-1.2262 -22.5,-1.1157 -22.5,2.7178 0,2.1978 1.93054,5.7105 4.2901,7.806 5.99438,5.3235 19.7099,22.7735 19.7099,25.0765 0,1.0491 -12.9684,-4.8329 -28.81868,-13.071 -34.62598,-17.9967 -46.79521,-21.8948 -65.12006,-20.8593 -12.38876,0.7 -14.94769,1.6989 -32.25871,12.5924 -10.3414,6.5076 -22.40255,14.6713 -26.80255,18.1415 -10.09653,7.963 -13,9.6183 -13,7.4111 z"
         id="path28"
         transform="scale(0.26458333)" />
      <path
         style="fill:#ed2124;fill-opacity:1;fill-rule:evenodd;stroke:#000000;stroke-width:5.01921;stroke-linejoin:round;stroke-opacity:1"
         d="M 243.53251,1990.9009 C 119.75829,1975.6121 28.359295,1917.4755 -13.383538,1827.4831 -39.89965,1770.3176 -53.38656,1699.5402 -47.240775,1649.8051 -41.126829,1600.3276 -20.781917,1555.2649 9.8511257,1523.35 45.732179,1485.9675 87.794048,1466.8828 150,1459.7602 l 37.5698,4.808 18.60301,1.8822 c -30.42934,-8.7958 -48.57785,-17.2958 -59.07547,-18.012 -11.80827,-0.8055 13.40021,-14.0351 36.73752,-12.3983 9.94171,0.6973 22.29518,1.1013 33.63145,4.7699 37.5923,12.1655 81.11013,23.1267 96.45424,22.7855 1.52018,1.5202 9.98204,-5.8716 15.41806,-10.1916 9.8611,-7.8367 25.97231,-15.549 39.84045,-19.3636 14.9379,-4.1089 43.86372,-4.6365 45.84768,-1.4263 0.912,1.4756 -15.58968,11.7163 -15.72492,12.6577 -0.0695,0.4836 10.80704,-7.7102 10.77469,-7.6762 -11.84223,12.4504 -22.54778,25.4957 -20.88273,27.1607 0.59099,0.591 20.72669,-2.567 32.10975,-3.8903 71.02762,-8.2632 125.63034,12.109 175.59757,65.5152 27.5016,29.3943 50.26698,68.2306 60.1541,102.6189 5.46864,19.0205 7.34864,57.8495 4.12604,85.218 -6.66694,56.6199 -22.4364,104.2567 -46.76212,141.2603 -43.30294,65.8711 -114.74191,110.4464 -209.41913,130.6698 -23.47114,5.0135 -28.73042,5.3768 -86,5.9399 -33.55,0.33 -67.51036,-0.2043 -75.46748,-1.1871 z M 11.86854,1697.1452 c 4.18902,-4.6288 4.952296,-20.5414 1.202054,-25.0602 -1.408206,-1.6968 -4.6794242,-3.085 -7.2693782,-3.085 -10.0039417,0 -15.5131235,19.4784 -7.8912397,27.9005 4.6483238,5.1363 9.4554477,5.2206 13.9585639,0.2447 z m 24.988641,-70.0688 c 4.912396,-2.629 7.42954,-9.8315 11.077416,-31.6964 3.653654,-21.8996 6.367778,-27.7175 23.902061,-51.2365 7.239838,-9.7109 13.16334,-19.2765 13.16334,-21.257 0,-10.1198 -16.12802,-13.0859 -31.277491,-5.7522 -10.37257,5.0213 -29.099656,24.7937 -35.552647,37.5371 -14.0828881,27.8111 -15.0260961,64.4086 -1.857256,72.0635 4.630419,2.6916 15.806261,2.8774 20.544577,0.3415 z m 193.625489,-75.32 c 5.78452,-3.984 10.51732,-8.034 10.51732,-9 0,-0.966 1.125,-1.7593 2.5,-1.7628 1.375,0 7.9,-3.6517 14.5,-8.1071 22.60882,-15.2625 25.98726,-16.4591 43.59104,-15.44 15.24056,0.8822 17.1747,1.5962 51.99478,19.1926 19.89096,10.052 36.51272,17.929 36.93724,17.5045 1.74332,-1.7434 -6.66394,-14.8075 -15.78202,-24.5239 -5.35756,-5.7092 -9.74104,-11.4717 -9.74104,-12.8056 0,-3.2795 34.68902,-1.1636 68,4.1478 29.10742,4.6411 28,4.5514 28,2.2682 0,-7.8424 -37.0933,-30.8278 -66.5,-41.2077 -5.225,-1.8443 -9.5,-4.5144 -9.5,-5.9336 0,-6.2646 8.65834,-21.1347 18.88816,-32.439 6.1115,-6.7534 11.11184,-12.9418 11.11184,-13.752 0,-2.1744 -29.45278,0.6671 -43.14618,4.1627 -16.31804,4.1655 -34.4686,13.3356 -45.34486,22.9093 -16.32174,14.367 -16.95304,13.022 -18.8032,-40.0607 -1.31928,-37.8516 0.72938,-63.6874 7.58018,-95.5936 2.20654,-10.2764 3.71986,-18.9518 3.36296,-19.2787 -1.20802,-1.1064 -32.26914,-7.0833 -33.00206,-6.3503 -0.4001,0.4 -2.1961,7.8343 -3.99114,16.5204 -5.12328,24.7916 -4.5994,72.2518 1.26128,114.2636 2.64476,18.9588 4.29416,34.985 3.6653,35.6138 -0.62884,0.6289 -9.11712,-1.925 -18.86282,-5.6752 -35.47586,-13.6516 -82.93594,-23.1212 -101.74315,-20.301 -4.18893,0.6282 -11.37134,2.0056 -15.63467,4.0802 -5.90647,2.8742 -7.92391,6.7517 -5.21663,7.5847 1.65,0.5077 9.35,3.5646 19.25,6.0291 18.95869,4.7197 42.49339,11.9033 50.22769,16.8492 6.43808,4.117 3.06134,6.6464 -11.5385,8.643 -21.34477,2.9191 -42.78907,16.9921 -53.34851,35.0104 -4.92353,8.4013 -11.46588,28.6953 -9.25078,28.6953 0.60656,0 6.61298,-3.48 13.3476,-7.7333 24.0481,-15.1877 46.28321,-25.0157 70.47617,-31.1506 14.35708,-3.6406 20.71132,-3.949 20.71132,-1.005 0,1.1612 -4.8561,10.3862 -10.79134,20.5 -9.14358,15.581 -17.20866,31.8123 -17.20866,34.6331 0,1.9985 3.85286,0.1445 13.48268,-6.4878 z"
         id="path29"
         transform="scale(0.26458333)"
         sodipodi:nodetypes="cssssccssscsssssscsssssscssssssssssssssscssssssssssssssssssssssssssssssssssss" />
      <path
         style="fill:#f5c5a9;fill-opacity:1;fill-rule:evenodd;stroke-width:5.01921;stroke-linejoin:round"
         d="m 16.535717,1623.5919 c -11.992305,-13.2513 -9.2702668,-46.8999 5.7638,-71.2494 7.185434,-11.6376 24.272006,-28.9205 33.120805,-33.5013 C 59.5015,1516.7285 66.495794,1515 70.9632,1515 c 6.652644,0 8.521814,0.8762 10.328822,4.8422 1.99416,4.3767 0.762982,6.7582 -12.806256,24.7715 -16.135457,21.42 -20.220607,30.8571 -23.499525,54.2863 -2.861176,20.4442 -6.885772,26.929 -17.188464,27.6956 -5.721762,0.4257 -8.933754,-0.4309 -11.26206,-3.0037 z"
         id="path30"
         transform="scale(0.26458333)" />
      <path
         style="fill:#f5c5a9;fill-opacity:1;fill-rule:evenodd;stroke-width:0.88728;stroke-linejoin:round"
         d="m 2.4154551,1699.0233 c -4.3335243,-1.9676 -8.0328307,-9.3472 -7.3633998,-14.6888 0.8172919,-6.5216 4.44490082,-12.5121 8.3653411,-13.8142 3.1422594,-1.0437 6.578437,-0.2929 8.5981316,1.8788 2.813019,3.0247 3.680725,11.1145 1.930595,17.9994 -1.886406,7.421 -6.530805,10.8949 -11.5306679,8.6248 z"
         id="path31"
         transform="scale(0.26458333)" />
      <path
         style="fill:#2eb454;fill-opacity:1;fill-rule:evenodd;stroke:#000000;stroke-width:2.50961;stroke-linejoin:round;stroke-opacity:1"
         d="m 298.0602,1458.8871 c -4.36688,-0.7884 -8.02955,-1.5355 -8.13926,-1.6603 -0.57233,-0.6509 -6.57589,-53.3268 -7.548,-66.2268 -0.67454,-8.9515 -0.90869,-25.4842 -0.58065,-41 0.48494,-22.9373 0.85959,-27.4688 3.1805,-38.4685 1.44695,-6.8577 2.73249,-12.5702 2.85675,-12.6944 0.45237,-0.4524 26.19155,4.829 26.90542,5.5207 0.40423,0.3917 -0.81442,8.5714 -2.70812,18.1771 -5.29661,26.867 -6.57574,38.4155 -7.1956,64.9651 -0.52199,22.3573 0.72406,59.8686 2.30035,69.25 0.34655,2.0625 0.23371,3.7096 -0.25076,3.6602 -0.48446,-0.049 -4.45374,-0.7347 -8.82063,-1.5231 z"
         id="path35"
         transform="scale(0.26458333)" />
    </g>
  </g>
</svg>
